<svg xmlns="http://www.w3.org/2000/svg" width="9" height="13" viewBox="0 0 9 13">
  <path id="address-icon" d="M-7.365-5.7a1.547,1.547,0,0,1-1.148-.458,1.58,1.58,0,0,1-.453-1.16,1.58,1.58,0,0,1,.453-1.16,1.547,1.547,0,0,1,1.148-.458,1.547,1.547,0,0,1,1.148.458,1.58,1.58,0,0,1,.453,1.16,1.58,1.58,0,0,1-.453,1.16A1.547,1.547,0,0,1-7.365-5.7Zm0-6.164a4.42,4.42,0,0,0-3.2,1.312,4.514,4.514,0,0,0-1.3,3.235A11.257,11.257,0,0,0-9.615-1.81a33.142,33.142,0,0,0,2.25,2.945A33.142,33.142,0,0,0-5.115-1.81a11.257,11.257,0,0,0,2.25-5.508,4.514,4.514,0,0,0-1.3-3.235A4.42,4.42,0,0,0-7.365-11.865Z" transform="translate(11.865 11.865)" fill="#fec62d"/>
</svg>
