<svg xmlns="http://www.w3.org/2000/svg" width="26.527" height="22.36" viewBox="0 0 26.527 22.36">
  <g id="love" transform="translate(0.25 -40.743)">
    <g id="Group_18296" data-name="Group 18296" transform="translate(0 40.993)">
      <path id="Path_19766" data-name="Path 19766" d="M23.871,43.013a7.536,7.536,0,0,0-10.269,0l-.589.559-.588-.559a7.537,7.537,0,0,0-10.27,0,6.735,6.735,0,0,0,0,9.878L12.385,62.6a.913.913,0,0,0,1.257,0L23.871,52.89a6.734,6.734,0,0,0,0-9.878Zm-1.258,8.553-9.6,9.113-9.6-9.113a4.908,4.908,0,0,1,0-7.23,5.688,5.688,0,0,1,7.752,0l1.218,1.156a.913.913,0,0,0,1.258,0l1.218-1.157a5.688,5.688,0,0,1,7.752,0,4.908,4.908,0,0,1,0,7.23Z" transform="translate(0 -40.993)" fill="#8a1222" stroke="#8a1222" stroke-width="0.5"/>
    </g>
  </g>
</svg>
