<svg xmlns="http://www.w3.org/2000/svg" width="14.325" height="14.327" viewBox="0 0 14.325 14.327">
  <path id="Path_19789" data-name="Path 19789" d="M-542.75,15289.928l-4.839-4.839-4.835,4.839a1.4,1.4,0,0,1-1.926,0,1.359,1.359,0,0,1-.4-.963,1.363,1.363,0,0,1,.4-.968l4.835-4.835-4.835-4.835a1.359,1.359,0,0,1-.4-.963,1.361,1.361,0,0,1,.4-.967,1.4,1.4,0,0,1,1.926,0l4.835,4.839,4.839-4.839a1.365,1.365,0,0,1,1.926,0,1.361,1.361,0,0,1,.4.967,1.359,1.359,0,0,1-.4.963l-4.835,4.835,4.835,4.835a1.347,1.347,0,0,1,.4.968,1.343,1.343,0,0,1-.4.963,1.354,1.354,0,0,1-.963.4A1.354,1.354,0,0,1-542.75,15289.928Z" transform="translate(554.749 -15276)" fill="#9d9d9d"/>
</svg>
