<svg id="email" xmlns="http://www.w3.org/2000/svg" width="24" height="17.625" viewBox="0 0 24 17.625">
  <g id="Group_17163" data-name="Group 17163">
    <g id="Group_17162" data-name="Group 17162">
      <path id="Path_19517" data-name="Path 19517" d="M21.188,68H2.813A2.816,2.816,0,0,0,0,70.813v12a2.816,2.816,0,0,0,2.813,2.813H21.188A2.816,2.816,0,0,0,24,82.813v-12A2.816,2.816,0,0,0,21.188,68Zm.938,14.813a.939.939,0,0,1-.937.938H2.813a.939.939,0,0,1-.937-.937v-12a.939.939,0,0,1,.938-.937H21.188a.939.939,0,0,1,.938.938Z" transform="translate(0 -68)" fill="#8a1222"/>
    </g>
  </g>
  <g id="Group_17165" data-name="Group 17165" transform="translate(0.915 1.169)">
    <g id="Group_17164" data-name="Group 17164">
      <path id="Path_19518" data-name="Path 19518" d="M40.573,92.937l-9.966,7.413-9.966-7.413-1.119,1.5,11.085,8.245,11.085-8.245Z" transform="translate(-19.522 -92.937)" fill="#8a1222"/>
    </g>
  </g>
</svg>
