<svg xmlns="http://www.w3.org/2000/svg" width="19.111" height="12.181" viewBox="0 0 19.111 12.181">
  <g id="view_1_" data-name="view (1)" transform="translate(0 -92.835)">
    <g id="Group_17676" data-name="Group 17676" transform="translate(0 92.835)">
      <g id="Group_17675" data-name="Group 17675" transform="translate(0 0)">
        <path id="Path_6757" data-name="Path 6757" d="M18.99,98.554c-.171-.234-4.239-5.719-9.434-5.719S.292,98.32.121,98.553a.631.631,0,0,0,0,.744c.171.234,4.239,5.719,9.434,5.719s9.263-5.485,9.434-5.718A.63.63,0,0,0,18.99,98.554Zm-9.434,5.2c-3.827,0-7.142-3.641-8.123-4.831.98-1.191,4.288-4.83,8.123-4.83s7.141,3.64,8.123,4.831C16.7,100.117,13.391,103.756,9.555,103.756Z" transform="translate(0 -92.835)" fill="#c1c1c1"/>
      </g>
    </g>
    <g id="Group_17678" data-name="Group 17678" transform="translate(5.775 95.145)">
      <g id="Group_17677" data-name="Group 17677" transform="translate(0 0)">
        <path id="Path_6758" data-name="Path 6758" d="M158.5,154.725a3.78,3.78,0,1,0,3.78,3.78A3.785,3.785,0,0,0,158.5,154.725Zm0,6.3a2.52,2.52,0,1,1,2.52-2.52A2.523,2.523,0,0,1,158.5,161.025Z" transform="translate(-154.722 -154.725)" fill="#c1c1c1"/>
      </g>
    </g>
  </g>
</svg>
