<svg xmlns="http://www.w3.org/2000/svg" width="13" height="12" viewBox="0 0 13 12">
  <path id="fax-icon" d="M-7.881-9.25h3.235v1.344H-7.881Zm-1.953,2v-4h7.141v4a1.985,1.985,0,0,1,1.4.594A1.932,1.932,0,0,1-.74-5.25v4H-2.693v2H-9.834v-2h-.671v-6Zm1.282-2.656V-7.25h4.577V-9.906Zm0,6.656V-.594h4.577V-3.25Zm5.859-2.656a.614.614,0,0,0-.458.188.644.644,0,0,0-.183.469.644.644,0,0,0,.183.469.614.614,0,0,0,.458.188.614.614,0,0,0,.458-.187.644.644,0,0,0,.183-.469.644.644,0,0,0-.183-.469A.614.614,0,0,0-2.693-5.906ZM-12.459-7.25h.671a.614.614,0,0,1,.458.187.644.644,0,0,1,.183.469v4.688a.644.644,0,0,1-.183.469.614.614,0,0,1-.458.188h-.671a1.2,1.2,0,0,1-.915-.391,1.342,1.342,0,0,1-.366-.953V-5.906a1.342,1.342,0,0,1,.366-.953A1.2,1.2,0,0,1-12.459-7.25Z" transform="translate(13.74 11.25)" fill="#fec62d"/>
</svg>
