<?xml version="1.0" standalone="no"?>
<!DOCTYPE svg PUBLIC "-//W3C//DTD SVG 20010904//EN"
 "http://www.w3.org/TR/2001/REC-SVG-20010904/DTD/svg10.dtd">
<svg version="1.0" xmlns="http://www.w3.org/2000/svg"
 width="512.000000pt" height="512.000000pt" viewBox="0 0 512.000000 512.000000"
 preserveAspectRatio="xMidYMid meet">

<g transform="translate(0.000000,512.000000) scale(0.100000,-0.100000)"
fill="#01A89F" stroke="none">
<path d="M680 4650 l0 -470 -247 0 c-240 0 -250 -1 -299 -24 -54 -25 -93 -68
-119 -129 -13 -32 -15 -253 -15 -1939 1 -1542 3 -1910 14 -1940 20 -54 55 -94
110 -123 l50 -25 1945 0 c1367 0 1958 3 1985 11 22 6 58 29 83 52 43 42 45 47
489 1266 416 1142 446 1228 441 1273 -8 64 -44 135 -87 169 -47 38 -111 49
-281 49 l-139 0 0 273 c0 304 -7 350 -61 411 -58 66 -94 76 -282 76 l-167 0 0
103 0 102 -668 668 -667 667 -1043 0 -1042 0 0 -470z m1968 -342 l2 -638 638
-2 637 -3 3 -422 2 -423 -1419 0 c-962 0 -1436 -3 -1469 -11 -68 -14 -128 -67
-163 -144 l-28 -60 -1 1173 0 1172 898 -2 897 -3 3 -637z m667 22 l490 -490
-493 0 -492 0 0 490 c0 270 1 490 3 490 1 0 223 -220 492 -490z m-2635 -1264
l0 -944 -251 -683 c-138 -376 -253 -686 -255 -688 -2 -2 -4 721 -4 1607 0
1599 0 1612 20 1632 19 19 33 20 255 20 l235 0 0 -944z m3736 330 c18 -14 19
-31 22 -295 l3 -281 -171 0 -170 0 0 295 0 295 148 0 c112 0 153 -3 168 -14z
m501 -754 c6 -4 17 -20 22 -35 10 -25 -37 -159 -420 -1210 -237 -650 -437
-1192 -445 -1204 l-14 -23 -1929 0 c-1902 0 -1928 0 -1946 20 -11 12 -15 27
-11 42 3 13 201 556 439 1208 377 1032 436 1186 457 1197 20 10 426 13 1930
13 1048 0 1910 -4 1917 -8z"/>
<path d="M1330 4427 c-54 -27 -63 -94 -20 -137 19 -19 35 -20 480 -20 l461 0
24 25 c44 43 29 112 -29 135 -42 16 -884 13 -916 -3z"/>
<path d="M1309 3811 c-17 -18 -29 -40 -29 -56 0 -16 12 -38 29 -56 l29 -29
457 0 456 0 24 25 c25 24 32 65 19 100 -17 43 -39 45 -509 45 l-447 0 -29 -29z"/>
<path d="M1312 3220 c-46 -43 -37 -109 18 -137 37 -19 2084 -18 2120 0 53 27
62 96 18 137 -22 20 -31 20 -1078 20 -1047 0 -1056 0 -1078 -20z"/>
</g>
</svg>
