
<svg version="1.0" xmlns="http://www.w3.org/2000/svg"
 width="512.000000pt" height="512.000000pt" viewBox="0 0 512.000000 512.000000"
 preserveAspectRatio="xMidYMid meet">

<g transform="translate(0.000000,512.000000) scale(0.100000,-0.100000)"
fill="#8a1222">
<path d="M1424 4696 c-57 -18 -125 -67 -157 -113 -50 -72 -57 -110 -57 -304
l0 -179 -180 0 c-216 0 -261 -12 -340 -90 -78 -79 -90 -124 -90 -340 l0 -180
-180 0 c-157 0 -186 -3 -234 -21 -66 -24 -133 -86 -164 -150 l-22 -45 0 -1332
0 -1333 24 -47 c31 -62 99 -124 162 -148 47 -18 101 -19 1764 -19 l1715 0 52
27 c64 34 115 86 145 147 21 42 23 62 26 238 l3 191 192 4 c218 4 249 12 326
90 77 76 86 107 89 325 l4 191 191 4 c171 3 197 5 239 25 57 26 119 89 150
151 l23 47 0 1050 0 1050 -21 46 c-31 67 -87 124 -152 156 l-57 28 -921 3
-921 3 -93 195 c-105 219 -141 268 -228 311 l-57 28 -595 2 c-465 2 -604 -1
-636 -11z m1260 -493 c111 -223 145 -269 226 -307 45 -21 54 -21 970 -26 l925
-5 3 -977 2 -978 -155 0 -155 0 0 694 c0 625 -2 699 -17 746 -22 69 -96 150
-165 181 l-53 24 -918 3 -917 3 -104 207 c-111 220 -140 259 -226 304 -43 22
-55 23 -317 26 l-273 3 0 155 0 154 535 0 535 0 104 -207z m-611 -603 c105
-217 142 -269 224 -310 l48 -25 928 -3 927 -2 0 -980 0 -980 -155 0 -155 0 0
700 c0 682 -1 701 -21 754 -25 67 -86 133 -154 166 l-50 25 -923 3 -923 2
-101 207 c-161 330 -167 333 -558 333 l-260 0 0 155 0 155 538 0 539 0 96
-200z m-600 -624 c118 -237 143 -268 244 -306 52 -19 77 -20 963 -20 l910 0 0
-980 0 -980 -1650 0 -1650 0 0 1250 0 1250 538 0 537 0 108 -214z"/>
<path d="M2603 1331 c-65 -30 -83 -68 -83 -176 0 -72 4 -96 20 -123 58 -95
183 -95 253 0 28 38 35 153 12 213 -32 86 -121 124 -202 86z"/>
<path d="M3040 1328 c-66 -34 -85 -73 -85 -180 0 -72 4 -91 21 -115 74 -99
198 -96 258 7 29 49 30 180 1 230 -21 36 -92 80 -130 80 -11 0 -41 -10 -65
-22z"/>
</g>
</svg>
