<svg xmlns="http://www.w3.org/2000/svg" width="21.833" height="18.992" viewBox="0 0 21.833 18.992">
  <path id="home" d="M11.417,2a.947.947,0,0,0-.673.281L1.192,10.615a.473.473,0,0,0,.281.854H3.841v7.576a.947.947,0,0,0,.947.947H8.576a.947.947,0,0,0,.947-.947V13.363H13.31v5.682a.947.947,0,0,0,.947.947h3.788a.947.947,0,0,0,.947-.947V11.47H21.36a.473.473,0,0,0,.281-.854L12.1,2.287l-.006-.006A.947.947,0,0,0,11.417,2Z" transform="translate(-0.5 -1.5)" fill="#fff" stroke="#fff" stroke-width="1"/>
</svg>
