<svg xmlns="http://www.w3.org/2000/svg" width="28" height="28" viewBox="0 0 28 28">
  <path id="instagram-icon" d="M10.684,3.225H22.515A8.079,8.079,0,0,1,30.6,11.309V23.14a8.079,8.079,0,0,1-8.085,8.085H10.684A8.079,8.079,0,0,1,2.6,23.14V11.309a8.079,8.079,0,0,1,8.085-8.085Zm-.263,2.761A5.049,5.049,0,0,0,5.36,11.046V23.4a5.049,5.049,0,0,0,5.061,5.061H22.778A5.049,5.049,0,0,0,27.839,23.4V11.046a5.049,5.049,0,0,0-5.061-5.061Zm13.54,2.1a1.909,1.909,0,0,1,1.216.559,1.709,1.709,0,1,1-2.432,0A1.909,1.909,0,0,1,23.961,8.088Zm-7.362,2.1a7.069,7.069,0,1,1-4.962,2.07A6.972,6.972,0,0,1,16.6,10.192Zm0,2.826a4.248,4.248,0,0,0-2.958,1.249,4.013,4.013,0,0,0-1.183,2.958A4.043,4.043,0,0,0,16.6,21.365a4.043,4.043,0,0,0,4.141-4.141,4.013,4.013,0,0,0-1.183-2.958A4.248,4.248,0,0,0,16.6,13.018Z" transform="translate(-2.6 -3.225)" fill="#fff"/>
</svg>
