<svg xmlns="http://www.w3.org/2000/svg" width="15.24" height="18.724" viewBox="0 0 15.24 18.724">
  <g id="office-building" transform="translate(0)">
    <path id="Path_19492" data-name="Path 19492" d="M150.613,180.75h1.381v1.38h-1.381Z" transform="translate(-147.842 -177.266)" fill="#989898"/>
    <path id="Path_19493" data-name="Path 19493" d="M210.863,180.75h1.381v1.38h-1.381Z" transform="translate(-205.32 -177.266)" fill="#989898"/>
    <path id="Path_19494" data-name="Path 19494" d="M271.113,180.75h1.381v1.38h-1.381Z" transform="translate(-262.798 -177.266)" fill="#989898"/>
    <path id="Path_19495" data-name="Path 19495" d="M331.363,180.75h1.381v1.38h-1.381Z" transform="translate(-320.276 -177.266)" fill="#989898"/>
    <path id="Path_19496" data-name="Path 19496" d="M150.613,241h1.381v1.38h-1.381Z" transform="translate(-147.842 -234.744)" fill="#989898"/>
    <path id="Path_19497" data-name="Path 19497" d="M210.863,241h1.381v1.38h-1.381Z" transform="translate(-205.32 -234.744)" fill="#989898"/>
    <path id="Path_19498" data-name="Path 19498" d="M271.113,241h1.381v1.38h-1.381Z" transform="translate(-262.798 -234.744)" fill="#989898"/>
    <path id="Path_19499" data-name="Path 19499" d="M331.363,241h1.381v1.38h-1.381Z" transform="translate(-320.276 -234.744)" fill="#989898"/>
    <path id="Path_19500" data-name="Path 19500" d="M150.613,301.25h1.381v1.38h-1.381Z" transform="translate(-147.842 -292.222)" fill="#989898"/>
    <path id="Path_19501" data-name="Path 19501" d="M210.863,301.25h1.381v1.38h-1.381Z" transform="translate(-205.32 -292.222)" fill="#989898"/>
    <path id="Path_19502" data-name="Path 19502" d="M271.113,301.25h1.381v1.38h-1.381Z" transform="translate(-262.798 -292.222)" fill="#989898"/>
    <path id="Path_19503" data-name="Path 19503" d="M331.363,301.25h1.381v1.38h-1.381Z" transform="translate(-320.276 -292.222)" fill="#989898"/>
    <path id="Path_19504" data-name="Path 19504" d="M150.613,361.5h1.381v1.38h-1.381Z" transform="translate(-147.842 -349.7)" fill="#989898"/>
    <path id="Path_19505" data-name="Path 19505" d="M210.863,361.5h1.381v1.38h-1.381Z" transform="translate(-205.32 -349.7)" fill="#989898"/>
    <path id="Path_19506" data-name="Path 19506" d="M271.113,361.5h1.381v1.38h-1.381Z" transform="translate(-262.798 -349.7)" fill="#989898"/>
    <path id="Path_19507" data-name="Path 19507" d="M331.363,361.5h1.381v1.38h-1.381Z" transform="translate(-320.276 -349.7)" fill="#989898"/>
    <path id="Path_19508" data-name="Path 19508" d="M150.613,421.75h1.381v1.38h-1.381Z" transform="translate(-147.842 -407.178)" fill="#989898"/>
    <path id="Path_19509" data-name="Path 19509" d="M331.363,421.75h1.381v1.38h-1.381Z" transform="translate(-320.276 -407.178)" fill="#989898"/>
    <path id="Path_19510" data-name="Path 19510" d="M90.375,4V22.724h15.24V4Zm8.316,17.344H97.3V19.952h1.392Zm5.544,0h-4.164V18.572H95.919v2.772H91.755V5.38h12.479Z" transform="translate(-90.375 -4)" fill="#989898"/>
  </g>
</svg>
