<svg xmlns="http://www.w3.org/2000/svg" width="17.2" height="19.111" viewBox="0 0 17.2 19.111">
  <path id="Path_1899" data-name="Path 1899" d="M8.733,6.778A2.867,2.867,0,1,1,11.6,9.644,2.867,2.867,0,0,1,8.733,6.778ZM11.6,2a4.778,4.778,0,1,0,4.778,4.778A4.778,4.778,0,0,0,11.6,2ZM7.778,13.467A4.778,4.778,0,0,0,3,18.244v1.911a.956.956,0,1,0,1.911,0V18.244a2.867,2.867,0,0,1,2.867-2.867h7.644a2.867,2.867,0,0,1,2.867,2.867v1.911a.956.956,0,1,0,1.911,0V18.244a4.778,4.778,0,0,0-4.778-4.778Z" transform="translate(-3 -2)" fill="#8a1222" fill-rule="evenodd"/>
</svg>
