<svg xmlns="http://www.w3.org/2000/svg" width="12" height="12" viewBox="0 0 12 12">
  <path id="phone-icon" d="M-3.219-5.188A10.338,10.338,0,0,1-1.359-7.734,10.338,10.338,0,0,1,1.187-9.594L2.656-8.125a.657.657,0,0,0,.688.156,7.461,7.461,0,0,1,2.375-.375.636.636,0,0,0,.469-.187A.636.636,0,0,0,6.375-9v-2.344a.636.636,0,0,0-.187-.469A.636.636,0,0,0,5.719-12,11.315,11.315,0,0,0-2.3-8.672,11.315,11.315,0,0,0-5.625-.656a.636.636,0,0,0,.188.469A.636.636,0,0,0-4.969,0h2.344a.636.636,0,0,0,.469-.187.636.636,0,0,0,.188-.469,7.461,7.461,0,0,1,.375-2.375.657.657,0,0,0-.156-.688Z" transform="translate(6.375) rotate(180)" fill="#fec62d"/>
</svg>
