<svg xmlns="http://www.w3.org/2000/svg" width="21.764" height="21.764" viewBox="0 0 21.764 21.764">
  <path id="print" d="M19.213,6.759H17.045V0H4.718V6.759H2.55A2.553,2.553,0,0,0,0,9.309V16.2a2.553,2.553,0,0,0,2.55,2.55H4.718v3.018H17.045V18.746h2.168a2.553,2.553,0,0,0,2.55-2.55V9.309A2.553,2.553,0,0,0,19.213,6.759ZM6.419,1.7h8.927V6.759H6.419Zm0,18.363V14.41h8.927v5.653ZM20.063,16.2a.851.851,0,0,1-.85.85H17.045V14.41h1.318v-1.7H3.4v1.7H4.718v2.635H2.55a.851.851,0,0,1-.85-.85V9.309a.851.851,0,0,1,.85-.85H19.213a.851.851,0,0,1,.85.85ZM13.645,3.4V5.1H8.119V3.4Zm0,0" fill="#8a1222"/>
</svg>
