<svg xmlns="http://www.w3.org/2000/svg" width="28" height="22.909" viewBox="0 0 28 22.909">
  <path id="twitter-icon" d="M30.111,7.989a12.636,12.636,0,0,1-3.265.947,5.84,5.84,0,0,0,2.511-3.219,11.265,11.265,0,0,1-3.641,1.388,5.74,5.74,0,0,0-4.269-1.83,5.67,5.67,0,0,0-4.018,1.7,5.8,5.8,0,0,0-1.7,4.1,4.61,4.61,0,0,0,.188,1.325,16.91,16.91,0,0,1-6.686-1.83A16.065,16.065,0,0,1,4.058,6.348,5.713,5.713,0,0,0,3.3,9.22a5.754,5.754,0,0,0,.691,2.808,5.645,5.645,0,0,0,1.821,2.02,5.714,5.714,0,0,1-2.574-.694v.063a5.586,5.586,0,0,0,1.287,3.692,5.782,5.782,0,0,0,3.3,1.988,5.685,5.685,0,0,1-1.507.189A4.366,4.366,0,0,1,5.25,19.16a5.72,5.72,0,0,0,2.009,2.872A5.652,5.652,0,0,0,10.587,23.2a10.389,10.389,0,0,1-3.265,1.83,11.609,11.609,0,0,1-3.83.631q-.691,0-1.381-.063A17.066,17.066,0,0,0,6.223,27.49a15.636,15.636,0,0,0,4.677.694q7.973-.316,12.148-5.364a17.258,17.258,0,0,0,4.238-11.044l-.063-.757A12.392,12.392,0,0,0,30.111,7.989Z" transform="translate(-2.111 -5.275)" fill="#fff"/>
</svg>
