<svg xmlns="http://www.w3.org/2000/svg" width="19.842" height="16.122" viewBox="0 0 19.842 16.122">
  <g id="twitter" transform="translate(0 -48)">
    <g id="Group_15177" data-name="Group 15177" transform="translate(0 48)">
      <path id="Path_12488" data-name="Path 12488" d="M19.842,49.909a8.481,8.481,0,0,1-2.344.642,4.045,4.045,0,0,0,1.79-2.248,8.129,8.129,0,0,1-2.579.985,4.068,4.068,0,0,0-7.036,2.782A4.189,4.189,0,0,0,9.766,53a11.514,11.514,0,0,1-8.384-4.255,4.069,4.069,0,0,0,1.25,5.437,4.017,4.017,0,0,1-1.838-.5v.045a4.087,4.087,0,0,0,3.259,4,4.06,4.06,0,0,1-1.067.134,3.6,3.6,0,0,1-.77-.069,4.107,4.107,0,0,0,3.8,2.834A8.174,8.174,0,0,1,.973,62.352,7.619,7.619,0,0,1,0,62.3a11.452,11.452,0,0,0,6.24,1.825A11.5,11.5,0,0,0,17.818,52.546c0-.18-.006-.353-.015-.526A8.115,8.115,0,0,0,19.842,49.909Z" transform="translate(0 -48)" fill="#fff"/>
    </g>
  </g>
</svg>
