
<svg version="1.0" xmlns="http://www.w3.org/2000/svg"
 width="512.000000pt" height="512.000000pt" viewBox="0 0 512.000000 512.000000"
 preserveAspectRatio="xMidYMid meet">

<g transform="translate(0.000000,512.000000) scale(0.100000,-0.100000)"
fill="#000000" stroke="none">
<path d="M1925 4629 c-293 -43 -564 -205 -744 -444 -67 -89 -154 -267 -180
-368 -113 -440 31 -890 374 -1165 l76 -61 -63 -32 c-525 -262 -867 -769 -904
-1339 l-7 -100 160 0 160 0 7 92 c44 577 453 1041 1028 1164 116 25 372 26
485 1 223 -48 441 -155 588 -290 l50 -46 -374 -374 -373 -375 -84 -422 c-47
-233 -83 -425 -80 -427 3 -3 306 55 753 144 l82 17 834 832 c778 775 837 837
870 902 47 94 64 192 50 287 -40 281 -318 470 -588 400 -128 -34 -157 -57
-520 -416 l-340 -337 -60 55 c-77 70 -215 163 -327 219 l-89 44 76 62 c201
161 339 393 397 663 16 77 16 333 0 410 -103 486 -474 836 -957 905 -83 11
-216 11 -300 -1z m360 -334 c155 -42 322 -152 420 -277 319 -407 183 -995
-281 -1219 -393 -190 -874 -20 -1064 375 -60 126 -74 190 -74 346 0 152 13
216 70 340 109 236 344 411 609 454 57 9 260 -3 320 -19z m1963 -1602 c67 -49
92 -137 58 -201 -8 -15 -367 -379 -798 -809 l-783 -783 -140 -29 c-77 -17
-140 -29 -142 -28 -1 2 11 65 28 142 l29 140 783 783 c430 431 796 790 812
798 40 19 119 12 153 -13z"/>
</g>
</svg>
