<svg xmlns="http://www.w3.org/2000/svg" width="28" height="20.364" viewBox="0 0 28 20.364">
  <path id="youtube-icon" d="M13.773,20.9l7.3-4.373-7.3-4.373ZM30.008,9.493a16.66,16.66,0,0,1,.394,2.768q.131,1.743.131,3.041l.066,1.23a30.288,30.288,0,0,1-.592,7.038A3.341,3.341,0,0,1,27.576,26.1a20.265,20.265,0,0,1-3.714.41q-2.728.137-5.028.137l-2.235.068q-8.808,0-10.977-.615A3.341,3.341,0,0,1,3.191,23.57,16.66,16.66,0,0,1,2.8,20.8q-.131-1.743-.131-3.041L2.6,16.531a30.288,30.288,0,0,1,.592-7.038A3.341,3.341,0,0,1,5.623,6.965a20.264,20.264,0,0,1,3.714-.41q2.728-.137,5.028-.137L16.6,6.35q8.808,0,10.977.615A3.341,3.341,0,0,1,30.008,9.493Z" transform="translate(-2.6 -6.35)" fill="#fff"/>
</svg>
